<?xml version="1.0" encoding="UTF-8" standalone="no"?>
<!-- Created with Inkscape (http://www.inkscape.org/) -->

<svg
   xmlns:dc="http://purl.org/dc/elements/1.1/"
   xmlns:cc="http://creativecommons.org/ns#"
   xmlns:rdf="http://www.w3.org/1999/02/22-rdf-syntax-ns#"
   xmlns:svg="http://www.w3.org/2000/svg"
   xmlns="http://www.w3.org/2000/svg"
   xmlns:sodipodi="http://sodipodi.sourceforge.net/DTD/sodipodi-0.dtd"
   xmlns:inkscape="http://www.inkscape.org/namespaces/inkscape"
   width="210mm"
   height="297mm"
   viewBox="0 0 210 297"
   version="1.1"
   id="svg143"
   inkscape:version="0.92.4 (5da689c313, 2019-01-14)"
   sodipodi:docname="toggle.svg">
  <defs
     id="defs137" />
  <sodipodi:namedview
     id="base"
     pagecolor="#ffffff"
     bordercolor="#666666"
     borderopacity="1.0"
     inkscape:pageopacity="0.0"
     inkscape:pageshadow="2"
     inkscape:zoom="0.35"
     inkscape:cx="400"
     inkscape:cy="560"
     inkscape:document-units="mm"
     inkscape:current-layer="layer1"
     showgrid="false"
     inkscape:window-width="1525"
     inkscape:window-height="743"
     inkscape:window-x="288"
     inkscape:window-y="288"
     inkscape:window-maximized="0" />
  <metadata
     id="metadata140">
    <rdf:RDF>
      <cc:Work
         rdf:about="">
        <dc:format>image/svg+xml</dc:format>
        <dc:type
           rdf:resource="http://purl.org/dc/dcmitype/StillImage" />
        <dc:title></dc:title>
      </cc:Work>
    </rdf:RDF>
  </metadata>
  <g
     inkscape:label="Layer 1"
     inkscape:groupmode="layer"
     id="layer1">
    <path
       inkscape:connector-curvature="0"
       style="fill:none;stroke:#000000;stroke-width:0.27691099"
       d="m 100.94821,98.751447 v -7.206273 c 0.054,-0.98433 -0.92758,-0.731221 -0.92758,-0.731221 h -8.02846 c -0.51824,0 -0.93534,-0.417113 -0.93534,-0.935345 v -6.592879 c 0,-0.518229 0.41711,-0.935342 0.93534,-0.935342 h 4.14239 c 0.51824,0 0.93586,0.417113 0.93586,0.935342 v 2.672707 c 0,0 -0.0396,0.982588 1.143,1.029835 h 1.71273 c 0,0 1.02896,0.253484 1.02206,-0.825199 v -11.01948 c 0.10139,-0.984187 -0.92758,-0.730705 -0.92758,-0.730705 h -1.7694 c -1.08815,-0.09449 -1.18081,0.935342 -1.18081,0.935342 v 2.672707 c 0,0.518239 -0.41762,0.935341 -0.93586,0.935341 h -4.14239 c -0.51823,0 -0.93534,-0.417102 -0.93534,-0.935341 v -6.59288 c 0,-0.518231 0.4171,-0.935344 0.93534,-0.935344 h 8.02846 c 0,0 0.98158,0.253108 0.92758,-0.731221 v -9.94151"
       id="path82" />
  </g>
</svg>
