<?xml version="1.0" encoding="UTF-8" standalone="no"?>
<!-- Created with Inkscape (http://www.inkscape.org/) -->

<svg
   xmlns:dc="http://purl.org/dc/elements/1.1/"
   xmlns:cc="http://creativecommons.org/ns#"
   xmlns:rdf="http://www.w3.org/1999/02/22-rdf-syntax-ns#"
   xmlns:svg="http://www.w3.org/2000/svg"
   xmlns="http://www.w3.org/2000/svg"
   xmlns:sodipodi="http://sodipodi.sourceforge.net/DTD/sodipodi-0.dtd"
   xmlns:inkscape="http://www.inkscape.org/namespaces/inkscape"
   width="210mm"
   height="297mm"
   viewBox="0 0 210 297"
   version="1.1"
   id="svg8"
   inkscape:version="0.92.4 (5da689c313, 2019-01-14)"
   sodipodi:docname="hole_and_peg_friction.svg">
  <defs
     id="defs2" />
  <sodipodi:namedview
     id="base"
     pagecolor="#ffffff"
     bordercolor="#666666"
     borderopacity="1.0"
     inkscape:pageopacity="0.0"
     inkscape:pageshadow="2"
     inkscape:zoom="15.839192"
     inkscape:cx="139.00905"
     inkscape:cy="937.59106"
     inkscape:document-units="mm"
     inkscape:current-layer="layer1"
     showgrid="false"
     inkscape:window-width="3440"
     inkscape:window-height="1411"
     inkscape:window-x="-9"
     inkscape:window-y="-9"
     inkscape:window-maximized="1"
     inkscape:snap-nodes="true" />
  <metadata
     id="metadata5">
    <rdf:RDF>
      <cc:Work
         rdf:about="">
        <dc:format>image/svg+xml</dc:format>
        <dc:type
           rdf:resource="http://purl.org/dc/dcmitype/StillImage" />
        <dc:title />
      </cc:Work>
    </rdf:RDF>
  </metadata>
  <g
     inkscape:label="Layer 1"
     inkscape:groupmode="layer"
     id="layer1">
    <path
       id="path829"
       style="fill:none;stroke:#000000;stroke-width:0.10538843;stroke-linecap:butt;stroke-linejoin:miter;stroke-miterlimit:4;stroke-dasharray:none;stroke-opacity:1"
       d="m 37.183386,58.057397 c 0.153668,-0.153668 0.501617,-0.233861 0.501617,-0.233861 l 5.278574,-0.0042 c 0,0 0.307831,6.91e-4 0.449127,0.141987 0.13571,0.13571 0.150339,0.556935 0.150339,0.556935 v 0.698923 c 0,0 -2.004521,-0.346347 -2.004521,0.349461 0,0.695808 2.004521,0.349461 2.004521,0.349461 v 0.698923 c 0,0 -0.06273,0.344047 -0.183748,0.465061 -0.141296,0.141296 -0.415718,0.200452 -0.415718,0.200452 h -4.84426 c 0,0 -0.716401,0.05249 -0.885818,-0.11693 -0.105265,-0.105265 -0.200452,-0.548583 -0.200452,-0.548583 v -0.698923 c 0,0 2.158838,0.395881 2.158838,-0.349461 0,-0.745342 -2.158838,-0.349461 -2.158838,-0.349461 v -0.698923 c 0,0 0.03038,-0.340924 0.150339,-0.460885 z"
       inkscape:connector-curvature="0"
       sodipodi:nodetypes="sccsccsccsccsccsccs" />
    <rect
       style="fill:none;fill-opacity:1;stroke:#000000;stroke-width:0.03818141;stroke-miterlimit:4;stroke-dasharray:none;stroke-opacity:1"
       id="rect815"
       width="3.1618187"
       height="3.1618185"
       x="37.010761"
       y="44.404808" />
  </g>
</svg>
